Coordinates
version=1
nRows=13
nColumns=40
inDegrees=yes

Units are S.I. units (second, meters, Newtons, ...)
Angles are in degrees.

endheader
time	pelvis_tilt	pelvis_list	pelvis_rotation	pelvis_tx	pelvis_ty	pelvis_tz	hip_flexion_r	hip_adduction_r	hip_rotation_r	knee_angle_r	knee_angle_r_beta	ankle_angle_r	subtalar_angle_r	mtp_angle_r	hip_flexion_l	hip_adduction_l	hip_rotation_l	knee_angle_l	knee_angle_l_beta	ankle_angle_l	subtalar_angle_l	mtp_angle_l	lumbar_extension	lumbar_bending	lumbar_rotation	arm_flex_r	arm_add_r	arm_rot_r	elbow_flex_r	pro_sup_r	wrist_flex_r	wrist_dev_r	arm_flex_l	arm_add_l	arm_rot_l	elbow_flex_l	pro_sup_l	wrist_flex_l	wrist_dev_l
      5.25000000	     -0.98640904	     23.68510537	     78.66404449	      0.56849960	      1.01900858	     -1.04028814	      3.47906933	     -2.44292018	     12.88296415	     55.86674934	      0.97505872	      5.49935804	      0.00000000	      0.00000000	    -28.16031173	      9.30664416	     -9.77274061	      2.26722641	      0.03957057	     10.78424740	      0.00000000	      0.00000000	    -38.23767184	     -4.02453413	      2.75073675	      5.10698052	    -10.58268888	      3.22769343	    135.63102167	     85.61652208	      0.00000000	      0.00000000	      4.75230680	    -12.63908124	      3.02017110	    137.93939779	     82.08633858	      0.00000000	      0.00000000
      5.26000000	     -0.41317709	     23.26588069	     79.15394187	      0.56729623	      1.01869322	     -1.03909687	      4.21078782	     -1.75862260	     11.80965306	     52.93531201	      0.92389549	      6.34284087	      0.00000000	      0.00000000	    -28.52759576	      8.57833461	     -9.27182615	      2.16378651	      0.03776520	     10.87965374	      0.00000000	      0.00000000	    -38.14818939	     -3.12275573	      2.33752621	      5.18798036	    -10.73616301	      3.40494791	    135.63215678	     85.69580657	      0.00000000	      0.00000000	      4.96394539	    -12.81608772	      3.22881989	    137.99319381	     81.98274853	      0.00000000	      0.00000000
      5.27000000	     -0.53961934	     22.76170005	     79.33227082	      0.56649294	      1.01802567	     -1.03768563	      5.34485782	     -1.88186124	     11.11241954	     50.13780032	      0.87506970	      7.27934715	      0.00000000	      0.00000000	    -28.98146287	      8.77758856	     -9.36709796	      1.59004319	      0.02775149	     10.89625391	      0.00000000	      0.00000000	    -37.86869137	     -3.09306024	      2.03397816	      5.22322554	    -10.85428099	      3.59596989	    135.61060260	     85.66038424	      0.00000000	      0.00000000	      5.17463767	    -12.91216031	      3.32872672	    137.94069094	     81.86961428	      0.00000000	      0.00000000
      5.28000000	     -0.53708281	     22.23798131	     79.65745103	      0.56569204	      1.01713085	     -1.03630876	      6.22788125	     -1.88299696	     10.23605821	     46.92284921	      0.81895821	      7.85758154	      0.00000000	      0.00000000	    -29.21938719	      8.72452176	     -9.37007205	      1.40304005	      0.02448767	     11.31655040	      0.00000000	      0.00000000	    -37.57830621	     -2.85973679	      1.67775453	      5.27400746	    -10.92032124	      3.76992936	    135.55953542	     85.61350115	      0.00000000	      0.00000000	      5.36930951	    -12.98685575	      3.39907083	    137.91814542	     81.75058309	      0.00000000	      0.00000000
      5.29000000	     -0.65008633	     21.66367579	     79.93460198	      0.56508352	      1.01591508	     -1.03475902	      7.10996154	     -2.03198898	      9.33109413	     43.51446625	      0.75947071	      8.63970582	      0.00000000	      0.00000000	    -29.36511504	      8.79965940	     -9.36661316	      1.24952632	      0.02180835	     11.51414059	      0.00000000	      0.00000000	    -37.23457031	     -2.78438334	      1.35601336	      5.34235879	    -10.93535270	      3.92038757	    135.45738241	     85.60329798	      0.00000000	      0.00000000	      5.53544431	    -13.03309622	      3.45287584	    137.86065598	     81.66395484	      0.00000000	      0.00000000
      5.30000000	     -0.96475803	     21.04162642	     80.10638324	      0.56478420	      1.01429329	     -1.03321783	      8.03017878	     -2.37722988	      8.52341479	     39.94931297	      0.69724705	      9.16712149	      0.00000000	      0.00000000	    -29.47778803	      9.12354498	     -9.40166151	      1.01136520	      0.01765165	     11.87707261	      0.00000000	      0.00000000	    -36.79388045	     -2.97560777	      1.10533127	      5.35403050	    -10.91753722	      4.06798025	    135.36771270	     85.54322991	      0.00000000	      0.00000000	      5.68069410	    -13.06605826	      3.48705334	    137.77256357	     81.55796989	      0.00000000	      0.00000000
      5.31000000	     -1.23147104	     20.43057912	     80.36279148	      0.56441884	      1.01255084	     -1.03183570	      8.75888088	     -2.68747404	      7.54998236	     36.10488940	      0.63014920	      9.05460227	      0.00000000	      0.00000000	    -29.54586003	      9.35371552	     -9.52555484	      0.92099607	      0.01607441	     12.19897983	      0.00000000	      0.00000000	    -36.36149225	     -3.07850288	      0.80854533	      5.34814016	    -10.88312425	      4.17060601	    135.27247930	     85.51171477	      0.00000000	      0.00000000	      5.75872820	    -13.06602799	      3.49068992	    137.71061084	     81.44139404	      0.00000000	      0.00000000
      5.32000000	     -1.50565360	     19.81682771	     80.47830165	      0.56434505	      1.01046922	     -1.03053035	      9.36261154	     -2.95791663	      6.66669272	     32.09257957	      0.56012118	      9.07602413	      0.00000000	      0.00000000	    -29.61360401	      9.65933777	     -9.79344017	      0.83849693	      0.01463453	     12.23163059	      0.00000000	      0.00000000	    -35.90747298	     -3.27640752	      0.63404400	      5.31237577	    -10.82993055	      4.27413432	    135.21874501	     85.36644275	      0.00000000	      0.00000000	      5.78876623	    -13.00920604	      3.46352137	    137.68162985	     81.35055287	      0.00000000	      0.00000000
      5.33000000	     -1.80808200	     19.16878476	     80.72330023	      0.56438937	      1.00814919	     -1.02924745	     10.01420051	     -3.19343527	      5.68149895	     28.15609760	      0.49141661	      9.04519854	      0.00000000	      0.00000000	    -29.65598756	      9.89088368	     -9.80590008	      0.74585605	      0.01301764	     12.67373507	      0.00000000	      0.00000000	    -35.39157685	     -3.45662932	      0.38070427	      5.23126666	    -10.71183173	      4.28147207	    135.06756815	     85.80199689	      0.00000000	      0.00000000	      5.82377421	    -12.98519839	      3.40325187	    137.58508526	     81.45594578	      0.00000000	      0.00000000
      5.34000000	     -2.39668862	     18.49637344	     80.46891905	      0.56526776	      1.00517501	     -1.02753572	     11.25845600	     -3.49865389	      5.51000983	     25.01011824	      0.43650891	      9.18305127	      0.00000000	      0.00000000	    -29.62955944	     10.64896233	    -10.27002269	      0.58129945	      0.01014559	     13.13427882	      0.00000000	      0.00000000	    -34.82001827	     -4.21335676	      0.47458052	      5.27148739	    -10.54322950	      4.28003050	    135.03254404	     85.80349901	      0.00000000	      0.00000000	      5.85074935	    -12.96947849	      3.36215564	    137.54277460	     81.45828979	      0.00000000	      0.00000000
      5.35000000	     -2.33874013	     17.84055205	     80.44043550	      0.56630629	      1.00261435	     -1.02640186	     11.44248725	     -3.10267574	      5.37745705	     20.55249427	      0.35870869	      8.69670146	      0.00000000	      0.00000000	    -29.70766700	     10.57319603	    -10.55023227	      0.58067056	      0.01013461	     13.61923288	      0.00000000	      0.00000000	    -34.31129856	     -4.20545331	      0.58544834	      5.17965704	    -10.35884230	      4.23094905	    134.93837336	     85.82172363	      0.00000000	      0.00000000	      5.80509555	    -12.90581409	      3.31722883	    137.45035561	     81.49331952	      0.00000000	      0.00000000
      5.36000000	     -2.68952085	     17.18171751	     80.31906957	      0.56775925	      0.99949944	     -1.02527618	     11.73520000	     -3.05553702	      5.80644136	     16.36656235	      0.28565040	      8.42923767	      0.00000000	      0.00000000	    -29.73776909	     10.96289836	    -10.87940728	      0.52675482	      0.00919361	     13.79188463	      0.00000000	      0.00000000	    -33.70756773	     -4.68902703	      0.67443998	      5.04633553	    -10.07018001	      4.23286010	    134.82881639	     85.82207227	      0.00000000	      0.00000000	      5.76225594	    -12.90851542	      3.19614447	    137.41095001	     81.51953185	      0.00000000	      0.00000000
      5.37000000	     -3.24061892	     16.55649794	     80.13094560	      0.56964270	      0.99619424	     -1.02402192	     12.22113317	     -3.14353434	      6.88612642	     12.77599080	      0.22298310	      8.36345645	      0.00000000	      0.00000000	    -29.75670433	     11.56249894	    -11.13391966	      0.48703018	      0.00850028	     13.96063558	      0.00000000	      0.00000000	    -33.10183041	     -5.45529359	      0.78180771	      4.95843574	     -9.69754375	      4.17538955	    134.70719460	     85.80647846	      0.00000000	      0.00000000	      5.73369569	    -13.02294816	      3.11714931	    137.35808468	     81.48628624	      0.00000000	      0.00000000
